<svg width="20" height="20" viewBox="0 0 20 20" fill="none" xmlns="http://www.w3.org/2000/svg">
  <circle cx="10" cy="10" r="10" fill="#F1F1F1" />
  <path
    d="M14.8703 14.3125C14.8383 14.3699 14.7913 14.4177 14.7344 14.4507C14.6774 14.4837 14.6127 14.5007 14.5469 14.5H5.45312C5.38733 14.5007 5.32255 14.4837 5.26563 14.4507C5.2087 14.4177 5.16174 14.3699 5.12969 14.3125C5.09533 14.256 5.07716 14.1911 5.07716 14.125C5.07716 14.0588 5.09533 13.994 5.12969 13.9375C5.82941 12.7321 6.94942 11.8274 8.275 11.3968C7.63962 11.019 7.14586 10.443 6.86958 9.75735C6.59329 9.07169 6.54977 8.31428 6.74569 7.60148C6.94161 6.88869 7.36614 6.25993 7.95406 5.8118C8.54198 5.36368 9.26077 5.12097 10 5.12097C10.7392 5.12097 11.458 5.36368 12.0459 5.8118C12.6339 6.25993 13.0584 6.88869 13.2543 7.60148C13.4502 8.31428 13.4067 9.07169 13.1304 9.75735C12.8541 10.443 12.3604 11.019 11.725 11.3968C13.0506 11.8274 14.1706 12.7321 14.8703 13.9375C14.9047 13.994 14.9228 14.0588 14.9228 14.125C14.9228 14.1911 14.9047 14.256 14.8703 14.3125Z"
    fill="#C3C2C9" />
</svg>
